<?xml version="1.0" encoding="UTF-8" standalone="no"?>
<svg
   xmlns:dc="http://purl.org/dc/elements/1.1/"
   xmlns:cc="http://creativecommons.org/ns#"
   xmlns:rdf="http://www.w3.org/1999/02/22-rdf-syntax-ns#"
   xmlns:svg="http://www.w3.org/2000/svg"
   xmlns="http://www.w3.org/2000/svg"
   xmlns:sodipodi="http://sodipodi.sourceforge.net/DTD/sodipodi-0.dtd"
   xmlns:inkscape="http://www.inkscape.org/namespaces/inkscape"
   width="275"
   height="61"
   viewBox="0 0 275 61"
   fill="none"
   version="1.1"
   id="svg228"
   sodipodi:docname="jalappeno.svg"
   inkscape:version="1.0.1 (3bc2e813f5, 2020-09-07, custom)">
  <metadata
     id="metadata232">
    <rdf:RDF>
      <cc:Work
         rdf:about="">
        <dc:format>image/svg+xml</dc:format>
        <dc:type
           rdf:resource="http://purl.org/dc/dcmitype/StillImage" />
      </cc:Work>
    </rdf:RDF>
  </metadata>
  <sodipodi:namedview
     pagecolor="#ffffff"
     bordercolor="#666666"
     borderopacity="1"
     objecttolerance="10"
     gridtolerance="10"
     guidetolerance="10"
     inkscape:pageopacity="0"
     inkscape:pageshadow="2"
     inkscape:window-width="640"
     inkscape:window-height="480"
     id="namedview230"
     showgrid="false"
     inkscape:zoom="2.6844345"
     inkscape:cx="116.00573"
     inkscape:cy="25.567129"
     inkscape:current-layer="svg228" />
  <g
     clip-path="url(#clip0)"
     id="g20">
    <path
       d="M-0.000289917 59.5729V51.6201L1.24721 52.0879C1.81425 52.3005 2.36712 52.4848 2.89164 52.6407C3.33109 52.7683 3.72803 52.8392 4.08243 52.8392C4.90464 52.8392 5.45751 52.6549 5.74103 52.3005C5.86862 52.1446 6.26555 51.4499 6.26555 49.0258V18.93H14.7854V49.3235C14.7854 52.8676 13.8214 55.6602 11.9218 57.6024C10.8586 58.6798 9.56858 59.4736 8.03756 59.9556C6.13796 60.5652 4.08243 60.5652 2.1403 60.0974L-0.000289917 59.5729Z"
       fill="black"
       id="path2" />
    <path
       d="M39.622 20.6455C38.6722 19.88 37.5239 19.2138 36.1914 18.6892C34.7454 18.108 33.1861 17.8245 31.5558 17.8245C28.7773 17.8245 26.3248 18.4482 24.2409 19.6674C22.1429 20.9007 20.5126 22.6444 19.3927 24.8558C18.287 27.0248 17.7199 29.5765 17.7199 32.4401C17.7199 35.3603 18.372 37.9546 19.6337 40.166C20.9095 42.3775 22.639 44.107 24.7796 45.2978C26.906 46.4886 29.2593 47.0982 31.7684 47.0982C34.065 47.0982 36.1772 46.5169 38.0343 45.3828C38.6297 45.0143 39.1684 44.6315 39.6504 44.2204L39.7071 46.5453H47.8583V18.4908H39.6504L39.622 20.6455ZM38.176 28.7826C38.7431 29.86 39.0266 31.0933 39.0266 32.4826V32.8653C39.0266 34.9067 38.4312 36.5086 37.2262 37.7419C36.0213 38.9752 34.5611 39.5706 32.775 39.5706C30.7336 39.5706 29.2451 38.9611 28.2102 37.7136C27.1187 36.3952 26.58 34.6799 26.58 32.4826C26.58 30.3278 27.1187 28.6267 28.2244 27.3083C29.2876 26.0608 30.7619 25.4512 32.775 25.4512C33.9232 25.4512 34.9439 25.7348 35.8937 26.316C36.8718 26.9114 37.609 27.7194 38.176 28.7826Z"
       fill="black"
       id="path4" />
    <path
       d="M61.0134 8.15601H52.5503V46.5165H61.0134V8.15601Z"
       fill="black"
       id="path6" />
    <path
       d="M85.9491 20.6455C84.9993 19.88 83.8511 19.2138 82.5185 18.6892C81.0725 18.108 79.5132 17.8245 77.8829 17.8245C75.1044 17.8245 72.6519 18.4482 70.568 19.6674C68.47 20.9007 66.8397 22.6444 65.7198 24.8558C64.6141 27.0248 64.047 29.5765 64.047 32.4401C64.047 35.3603 64.6991 37.9546 65.9608 40.166C67.2367 42.3775 68.9662 44.107 71.1067 45.2978C73.2332 46.4886 75.5864 47.0982 78.0956 47.0982C80.3921 47.0982 82.5043 46.5169 84.3614 45.3828C84.9568 45.0143 85.4955 44.6315 85.9775 44.2204L86.0342 46.5453H94.1854V18.4908H85.9775L85.9491 20.6455ZM84.5032 28.7826C85.0702 29.86 85.3537 31.0933 85.3537 32.4826V32.8653C85.3537 34.9067 84.7583 36.5086 83.5534 37.7419C82.3484 38.9752 80.8883 39.5706 79.1021 39.5706C77.0607 39.5706 75.5722 38.9611 74.5374 37.7136C73.4458 36.3952 72.9071 34.6799 72.9071 32.4826C72.9071 30.3278 73.4458 28.6267 74.5515 27.3083C75.6147 26.0608 77.0891 25.4512 79.1021 25.4512C80.2503 25.4512 81.271 25.7348 82.2208 26.316C83.199 26.9114 83.9361 27.7194 84.5032 28.7826Z"
       fill="black"
       id="path8" />
    <path
       d="M115.082 17.8245C111.694 17.8245 108.915 18.831 106.775 20.8298V18.4908H98.4818V56.8513H106.831L106.789 44.6599C107.356 45.0993 107.994 45.4821 108.674 45.8223C110.418 46.6587 112.474 47.084 114.813 47.084C117.336 47.084 119.647 46.4602 121.716 45.2411C123.786 44.0219 125.431 42.2641 126.635 40.0243C127.826 37.8128 128.422 35.2328 128.422 32.3692C128.422 27.7478 127.174 24.1329 124.722 21.6237C122.255 19.1003 119.023 17.8245 115.082 17.8245ZM113.423 25.5079C115.507 25.5079 117.024 26.1033 118.059 27.3225C119.136 28.5842 119.675 30.342 119.675 32.5393C119.675 34.6657 119.136 36.3385 118.031 37.6569C116.967 38.9044 115.465 39.5139 113.423 39.5139C112.275 39.5139 111.24 39.2304 110.29 38.6634C109.326 38.0821 108.575 37.3025 107.994 36.2393C107.413 35.1902 107.115 33.9711 107.115 32.596V32.2132C107.115 30.8523 107.413 29.6474 107.98 28.6409C108.561 27.6344 109.312 26.883 110.276 26.3302C111.269 25.7773 112.289 25.5079 113.423 25.5079Z"
       fill="black"
       id="path10" />
    <path
       d="M147.616 17.8245C144.228 17.8245 141.45 18.831 139.309 20.8298V18.4908H131.016V56.8513H139.366L139.323 44.6599C139.89 45.0993 140.528 45.4821 141.209 45.8223C142.952 46.6587 145.008 47.084 147.347 47.084C149.87 47.084 152.181 46.4602 154.251 45.2411C156.321 44.0219 157.965 42.2641 159.17 40.0243C160.361 37.8128 160.956 35.2328 160.956 32.3692C160.956 27.7478 159.709 24.1329 157.256 21.6237C154.79 19.1003 151.557 17.8245 147.616 17.8245ZM145.958 25.5079C148.042 25.5079 149.559 26.1033 150.593 27.3225C151.671 28.5842 152.209 30.342 152.209 32.5393C152.209 34.6657 151.671 36.3385 150.565 37.6569C149.502 38.9044 147.999 39.5139 145.958 39.5139C144.81 39.5139 143.775 39.2304 142.825 38.6634C141.861 38.0821 141.11 37.3025 140.528 36.2393C139.947 35.1902 139.649 33.9711 139.649 32.596V32.2132C139.649 30.8523 139.947 29.6474 140.514 28.6409C141.095 27.6344 141.847 26.883 142.811 26.3302C143.803 25.7773 144.824 25.5079 145.958 25.5079Z"
       fill="black"
       id="path12" />
    <path
       d="M176.38 17.8245C173.658 17.8245 171.177 18.4341 168.994 19.6249C166.783 20.8298 165.039 22.5735 163.806 24.8133C162.572 27.0248 161.948 29.6332 161.948 32.5393C161.948 35.1335 162.473 37.5435 163.522 39.7266C164.585 41.9664 166.272 43.7809 168.526 45.0993C170.752 46.4177 173.53 47.084 176.791 47.084C179.158 47.084 181.214 46.843 182.915 46.3752C184.644 45.8932 185.991 45.3261 187.04 44.6599L187.933 44.0928L185.141 37.5718L183.936 38.2239C183.071 38.6917 182.093 39.0603 181.044 39.3438C180.009 39.6132 178.634 39.7549 176.961 39.7549C175.118 39.7549 173.7 39.3438 172.737 38.55C172.042 37.9687 171.489 37.0756 171.106 35.8849H188.997L189.11 34.7649C189.223 33.645 189.28 32.5535 189.28 31.5186C189.28 27.2941 188.217 23.9344 186.105 21.5386C183.921 19.0578 180.661 17.8245 176.38 17.8245ZM176.21 25.3945C177.812 25.3945 179.017 25.7631 179.81 26.4861C180.392 27.0106 180.746 27.9179 180.859 29.1654H171.021C171.758 26.5995 173.445 25.3945 176.21 25.3945Z"
       fill="black"
       id="path14" />
    <path
       d="M214.356 19.7241C212.726 18.4624 210.43 17.8245 207.523 17.8245C205.241 17.8245 203.214 18.4057 201.499 19.5398C200.974 19.88 200.506 20.2486 200.067 20.6597L200.038 18.5049H191.646V46.5453H200.166V32.6102C200.166 31.1075 200.492 29.775 201.13 28.6834C201.782 27.5777 202.59 26.7271 203.554 26.1459C204.504 25.5788 205.425 25.2953 206.304 25.2953C208.218 25.2953 208.785 26.0892 209.054 26.6846C209.607 27.9462 209.891 30.1294 209.891 33.163V46.5453H218.411V32.9929C218.411 29.7608 218.155 27.0815 217.645 25.0118C217.092 22.772 215.987 20.9858 214.356 19.7241Z"
       fill="black"
       id="path16" />
    <path
       d="M248.195 25.0963C246.99 22.8564 245.26 21.0703 243.049 19.7661C240.837 18.476 238.257 17.8098 235.379 17.8098C232.502 17.8098 229.907 18.4619 227.682 19.7661C225.442 21.0703 223.713 22.8564 222.508 25.0963C221.317 27.3077 220.721 29.7744 220.721 32.4253C220.721 35.1046 221.331 37.5996 222.55 39.8111C223.769 42.0509 225.513 43.8371 227.753 45.1271C229.978 46.4171 232.544 47.0834 235.394 47.0834C238.243 47.0834 240.809 46.4313 243.006 45.1271C245.218 43.8229 246.961 42.0367 248.166 39.8111C249.371 37.5996 249.995 35.1046 249.995 32.4253C249.981 29.7744 249.385 27.3219 248.195 25.0963ZM239.646 37.7697C238.64 39.0597 237.307 39.6835 235.55 39.6835C233.763 39.6835 232.36 39.0314 231.226 37.713C230.049 36.3237 229.468 34.6368 229.468 32.5529C229.468 30.3698 230.007 28.6261 231.112 27.2085C232.147 25.8901 233.494 25.238 235.209 25.238C237.01 25.238 238.427 25.8901 239.519 27.251C240.681 28.6828 241.248 30.4123 241.248 32.5529C241.248 34.6793 240.724 36.3946 239.646 37.7697Z"
       fill="black"
       id="path18" />
  </g>
  <g
     clip-path="url(#clip1)"
     id="g218">
    <path
       d="M225.325 6.31088V8.41284H227.427V6.31088H225.325Z"
       fill="#29D381"
       id="path22" />
    <path
       d="M227.428 6.31088V8.41284H229.529V6.31088H227.428Z"
       fill="#28DD8B"
       id="path24" />
    <path
       d="M229.532 4.20938V6.31134H231.634V4.20938H229.532Z"
       fill="#4BEF9D"
       id="path26" />
    <path
       d="M229.532 6.31088V8.41284H231.634V6.31088H229.532Z"
       fill="#29D381"
       id="path28" />
    <path
       d="M231.636 4.20938V6.31134H233.738V4.20938H231.636Z"
       fill="#28DD8B"
       id="path30" />
    <path
       d="M233.737 4.20938V6.31134H235.839V4.20938H233.737Z"
       fill="#28DD8B"
       id="path32" />
    <path
       d="M235.843 4.20938V6.31134H237.945V4.20938H235.843Z"
       fill="#28DD8B"
       id="path34" />
    <path
       d="M237.944 6.31088V8.41284H240.045V6.31088H237.944Z"
       fill="#28DD8B"
       id="path36" />
    <path
       d="M237.944 4.20938V6.31134H240.045V4.20938H237.944Z"
       fill="#4BEF9D"
       id="path38" />
    <path
       d="M240.046 6.31088V8.41284H242.148V6.31088H240.046Z"
       fill="#28DD8B"
       id="path40" />
    <path
       d="M256.871 10.5179V12.6198H258.973V10.5179H256.871Z"
       fill="#28DD8B"
       id="path42" />
    <path
       d="M240.046 8.41522V10.5172H242.148V8.41522H240.046Z"
       fill="#28DD8B"
       id="path44" />
    <path
       d="M237.944 8.41522V10.5172H240.045V8.41522H237.944Z"
       fill="#29D381"
       id="path46" />
    <path
       d="M240.046 4.20938V6.31134H242.148V4.20938H240.046Z"
       fill="#28DD8B"
       id="path48" />
    <path
       d="M240.046 2.10504V4.207H242.148V2.10504H240.046Z"
       fill="#4BEF9D"
       id="path50" />
    <path
       d="M237.944 2.10504V4.207H240.045V2.10504H237.944Z"
       fill="#28DD8B"
       id="path52" />
    <path
       d="M235.843 2.10504V4.207H237.945V2.10504H235.843Z"
       fill="#28DD8B"
       id="path54" />
    <path
       d="M235.843 6.31088V8.41284H237.945V6.31088H235.843Z"
       fill="#29D381"
       id="path56" />
    <path
       d="M242.15 6.31088V8.41284H244.252V6.31088H242.15Z"
       fill="#28DD8B"
       id="path58" />
    <path
       d="M242.15 8.41522V10.5172H244.252V8.41522H242.15Z"
       fill="#28DD8B"
       id="path60" />
    <path
       d="M242.15 4.20938V6.31134H244.252V4.20938H242.15Z"
       fill="#4BEF9D"
       id="path62" />
    <path
       d="M244.252 6.31088V8.41284H246.354V6.31088H244.252Z"
       fill="#28DD8B"
       id="path64" />
    <path
       d="M244.252 8.41522V10.5172H246.354V8.41522H244.252Z"
       fill="#28DD8B"
       id="path66" />
    <path
       d="M244.252 10.5179V12.6198H246.354V10.5179H244.252Z"
       fill="#28DD8B"
       id="path68" />
    <path
       d="M246.356 10.5179V12.6198H248.458V10.5179H246.356Z"
       fill="#28DD8B"
       id="path70" />
    <path
       d="M248.458 10.5179V12.6198H250.56V10.5179H248.458Z"
       fill="#28DD8B"
       id="path72" />
    <path
       d="M250.564 10.5179V12.6198H252.666V10.5179H250.564Z"
       fill="#28DD8B"
       id="path74" />
    <path
       d="M252.665 10.5179V12.6198H254.767V10.5179H252.665Z"
       fill="#28DD8B"
       id="path76" />
    <path
       d="M254.767 10.5179V12.6198H256.869V10.5179H254.767Z"
       fill="#28DD8B"
       id="path78" />
    <path
       d="M244.252 4.20938V6.31134H246.354V4.20938H244.252Z"
       fill="#28DD8B"
       id="path80" />
    <path
       d="M246.356 6.31088V8.41284H248.458V6.31088H246.356Z"
       fill="#28DD8B"
       id="path82" />
    <path
       d="M246.356 8.41522V10.5172H248.458V8.41522H246.356Z"
       fill="#28DD8B"
       id="path84" />
    <path
       d="M246.356 4.20938V6.31134H248.458V4.20938H246.356Z"
       fill="#4BEF9D"
       id="path86" />
    <path
       d="M246.356 2.10504V4.207H248.458V2.10504H246.356Z"
       fill="#28DD8B"
       id="path88" />
    <path
       d="M248.458 6.31088V8.41284H250.56V6.31088H248.458Z"
       fill="#28DD8B"
       id="path90" />
    <path
       d="M248.458 8.41522V10.5172H250.56V8.41522H248.458Z"
       fill="#28DD8B"
       id="path92" />
    <path
       d="M248.458 4.20938V6.31134H250.56V4.20938H248.458Z"
       fill="#4BEF9D"
       id="path94" />
    <path
       d="M248.458 2.10504V4.207H250.56V2.10504H248.458Z"
       fill="#4BEF9D"
       id="path96" />
    <path
       d="M250.564 6.31088V8.41284H252.666V6.31088H250.564Z"
       fill="#28DD8B"
       id="path98" />
    <path
       d="M250.564 8.41522V10.5172H252.666V8.41522H250.564Z"
       fill="#28DD8B"
       id="path100" />
    <path
       d="M250.564 4.20938V6.31134H252.666V4.20938H250.564Z"
       fill="#4BEF9D"
       id="path102" />
    <path
       d="M252.665 4.20938V6.31134H254.767V4.20938H252.665Z"
       fill="#28DD8B"
       id="path104" />
    <path
       d="M252.665 2.10504V4.207H254.767V2.10504H252.665Z"
       fill="#4BEF9D"
       id="path106" />
    <path
       d="M252.665 0.00299001V2.10495H254.767V0.00299001H252.665Z"
       fill="#28DD8B"
       id="path108" />
    <path
       d="M250.564 0.00299001V2.10495H252.666V0.00299001H250.564Z"
       fill="#28DD8B"
       id="path110" />
    <path
       d="M248.458 0.00299001V2.10495H250.56V0.00299001H248.458Z"
       fill="#28DD8B"
       id="path112" />
    <path
       d="M246.356 0.00299001V2.10495H248.458V0.00299001H246.356Z"
       fill="#28DD8B"
       id="path114" />
    <path
       d="M244.252 0.00299001V2.10495H246.354V0.00299001H244.252Z"
       fill="#28DD8B"
       id="path116" />
    <path
       d="M242.15 0.00299001V2.10495H244.252V0.00299001H242.15Z"
       fill="#28DD8B"
       id="path118" />
    <path
       d="M240.046 0.00299001V2.10495H242.148V0.00299001H240.046Z"
       fill="#28DD8B"
       id="path120" />
    <path
       d="M250.564 2.10504V4.207H252.666V2.10504H250.564Z"
       fill="#28DD8B"
       id="path122" />
    <path
       d="M252.665 6.31088V8.41284H254.767V6.31088H252.665Z"
       fill="#28DD8B"
       id="path124" />
    <path
       d="M252.665 8.41522V10.5172H254.767V8.41522H252.665Z"
       fill="#28DD8B"
       id="path126" />
    <path
       d="M254.767 6.31088V8.41284H256.869V6.31088H254.767Z"
       fill="#28DD8B"
       id="path128" />
    <path
       d="M254.767 4.20938V6.31134H256.869V4.20938H254.767Z"
       fill="#4BEF9D"
       id="path130" />
    <path
       d="M254.767 2.10504V4.207H256.869V2.10504H254.767Z"
       fill="#4BEF9D"
       id="path132" />
    <path
       d="M256.871 2.10504V4.207H258.973V2.10504H256.871Z"
       fill="#4BEF9D"
       id="path134" />
    <path
       d="M258.973 2.10504V4.207H261.075V2.10504H258.973Z"
       fill="#4BEF9D"
       id="path136" />
    <path
       d="M256.871 6.31088V8.41284H258.973V6.31088H256.871Z"
       fill="#28DD8B"
       id="path138" />
    <path
       d="M256.871 8.41522V10.5172H258.973V8.41522H256.871Z"
       fill="#28DD8B"
       id="path140" />
    <path
       d="M256.871 4.20938V6.31134H258.973V4.20938H256.871Z"
       fill="#28DD8B"
       id="path142" />
    <path
       d="M258.973 6.31088V8.41284H261.075V6.31088H258.973Z"
       fill="#28DD8B"
       id="path144" />
    <path
       d="M258.973 8.41522V10.5172H261.075V8.41522H258.973Z"
       fill="#28DD8B"
       id="path146" />
    <path
       d="M258.973 10.5179V12.6198H261.075V10.5179H258.973Z"
       fill="#28DD8B"
       id="path148" />
    <path
       d="M256.871 12.6194V14.7213H258.973V12.6194H256.871Z"
       fill="#28DD8B"
       id="path150" />
    <path
       d="M254.767 8.41522V10.5172H256.869V8.41522H254.767Z"
       fill="#28DD8B"
       id="path152" />
    <path
       d="M258.973 12.6194V14.7213H261.075V12.6194H258.973Z"
       fill="#28DD8B"
       id="path154" />
    <path
       d="M258.973 4.20938V6.31134H261.075V4.20938H258.973Z"
       fill="#4BEF9D"
       id="path156" />
    <path
       d="M261.076 6.31088V8.41284H263.178V6.31088H261.076Z"
       fill="#4BEF9D"
       id="path158" />
    <path
       d="M261.076 8.41522V10.5172H263.178V8.41522H261.076Z"
       fill="#28DD8B"
       id="path160" />
    <path
       d="M261.076 10.5179V12.6198H263.178V10.5179H261.076Z"
       fill="#28DD8B"
       id="path162" />
    <path
       d="M263.18 6.31088V8.41284H265.282V6.31088H263.18Z"
       fill="#28DD8B"
       id="path164" />
    <path
       d="M263.18 8.41522V10.5172H265.282V8.41522H263.18Z"
       fill="#4BEF9D"
       id="path166" />
    <path
       d="M263.18 10.5179V12.6198H265.282V10.5179H263.18Z"
       fill="#28DD8B"
       id="path168" />
    <path
       d="M263.18 12.6194V14.7213H265.282V12.6194H263.18Z"
       fill="#28DD8B"
       id="path170" />
    <path
       d="M265.282 10.5179V12.6198H267.384V10.5179H265.282Z"
       fill="#4BEF9D"
       id="path172" />
    <path
       d="M265.282 12.6194V14.7213H267.384V12.6194H265.282Z"
       fill="#28DD8B"
       id="path174" />
    <path
       d="M265.282 14.7237V16.8257H267.384V14.7237H265.282Z"
       fill="#28DD8B"
       id="path176" />
    <path
       d="M265.282 16.8258V18.9277H267.384V16.8258H265.282Z"
       fill="#28DD8B"
       id="path178" />
    <path
       d="M265.282 18.9295V21.0315H267.384V18.9295H265.282Z"
       fill="#28DD8B"
       id="path180" />
    <path
       d="M263.18 18.9295V21.0315H265.282V18.9295H263.18Z"
       fill="#28DD8B"
       id="path182" />
    <path
       d="M263.18 16.8258V18.9277H265.282V16.8258H263.18Z"
       fill="#28DD8B"
       id="path184" />
    <path
       d="M263.18 14.7237V16.8257H265.282V14.7237H263.18Z"
       fill="#28DD8B"
       id="path186" />
    <path
       d="M261.076 12.6194V14.7213H263.178V12.6194H261.076Z"
       fill="#28DD8B"
       id="path188" />
    <path
       d="M261.076 14.7237V16.8257H263.178V14.7237H261.076Z"
       fill="#28DD8B"
       id="path190" />
    <path
       d="M267.385 12.6194V14.7213H269.487V12.6194H267.385Z"
       fill="#4BEF9D"
       id="path192" />
    <path
       d="M267.385 14.7237V16.8257H269.487V14.7237H267.385Z"
       fill="#28DD8B"
       id="path194" />
    <path
       d="M267.385 16.8258V18.9277H269.487V16.8258H267.385Z"
       fill="#28DD8B"
       id="path196" />
    <path
       d="M267.385 18.9295V21.0315H269.487V18.9295H267.385Z"
       fill="#4BEF9D"
       id="path198" />
    <path
       d="M265.282 21.0322V23.1342H267.384V21.0322H265.282Z"
       fill="#28DD8B"
       id="path200" />
    <path
       d="M263.18 21.0322V23.1342H265.282V21.0322H263.18Z"
       fill="#28DD8B"
       id="path202" />
    <path
       d="M261.076 24.4302V26.5321H263.178V24.4302H261.076Z"
       fill="#29D381"
       id="path204" />
    <path
       d="M263.18 23.1365V25.2385H265.282V23.1365H263.18Z"
       fill="#28DD8B"
       id="path206" />
    <path
       d="M261.076 22.3281V24.4301H263.178V22.3281H261.076Z"
       fill="#29D381"
       id="path208" />
    <path
       d="M265.282 8.41522V10.5172H267.384V8.41522H265.282Z"
       fill="#28DD8B"
       id="path210" />
    <path
       d="M261.076 4.20938V6.31134H263.178V4.20938H261.076Z"
       fill="#28DD8B"
       id="path212" />
    <path
       d="M242.15 2.10504V4.207H244.252V2.10504H242.15Z"
       fill="#4BEF9D"
       id="path214" />
    <path
       d="M244.252 2.10504V4.207H246.354V2.10504H244.252Z"
       fill="#4BEF9D"
       id="path216" />
  </g>
  <defs
     id="defs226">
    <clipPath
       id="clip0">
      <rect
         width="274.804"
         height="59.4971"
         fill="white"
         transform="translate(-1.52588e-05 0.926605)"
         id="rect220" />
    </clipPath>
    <clipPath
       id="clip1">
      <rect
         width="26.5314"
         height="44.1622"
         fill="white"
         transform="translate(225.324 26.5317) rotate(-90)"
         id="rect223" />
    </clipPath>
  </defs>
</svg>
