<?xml version="1.0" encoding="UTF-8" standalone="no"?>
<svg
   xmlns:dc="http://purl.org/dc/elements/1.1/"
   xmlns:cc="http://creativecommons.org/ns#"
   xmlns:rdf="http://www.w3.org/1999/02/22-rdf-syntax-ns#"
   xmlns:svg="http://www.w3.org/2000/svg"
   xmlns="http://www.w3.org/2000/svg"
   xmlns:sodipodi="http://sodipodi.sourceforge.net/DTD/sodipodi-0.dtd"
   xmlns:inkscape="http://www.inkscape.org/namespaces/inkscape"
   width="305.00101mm"
   height="97.408005mm"
   viewBox="0 0 305.00101 97.408005"
   version="1.1"
   id="svg897"
   inkscape:version="1.0.1 (3bc2e813f5, 2020-09-07, custom)"
   sodipodi:docname="rating_star.svg">
  <defs
     id="defs891" />
  <sodipodi:namedview
     id="base"
     pagecolor="#ffffff"
     bordercolor="#666666"
     borderopacity="1.0"
     inkscape:pageopacity="0.0"
     inkscape:pageshadow="2"
     inkscape:zoom="0.49497475"
     inkscape:cx="1213.7371"
     inkscape:cy="315.44666"
     inkscape:document-units="mm"
     inkscape:current-layer="layer1"
     inkscape:document-rotation="0"
     showgrid="false" />
  <metadata
     id="metadata894">
    <rdf:RDF>
      <cc:Work
         rdf:about="">
        <dc:format>image/svg+xml</dc:format>
        <dc:type
           rdf:resource="http://purl.org/dc/dcmitype/StillImage" />
        <dc:title></dc:title>
      </cc:Work>
    </rdf:RDF>
  </metadata>
  <g
     inkscape:label="Layer 1"
     inkscape:groupmode="layer"
     id="layer1"
     transform="translate(-0.074824,20.102819)">
    <path
       id="rect1472"
       style="opacity:1;fill:#ffffff;fill-opacity:1;stroke-width:85.0001;paint-order:stroke fill markers;stop-color:#000000"
       d="M 0.10546875,-75.923828 V -0.06054687 82.560547 C 2.9260579,77.365629 73.919833,74.369702 78.359375,71.128906 82.835526,67.861388 107.69444,0.06715136 113.23633,0.0546875 c 5.54188,-0.01246386 30.70646,67.6686605 35.19726,70.9160155 4.49081,3.247351 76.64866,5.942194 78.37305,11.208985 1.72439,5.266788 -54.86768,50.114172 -56.56836,55.388672 -1.70068,5.2745 18.03469,74.73248 13.5586,78 -4.47616,3.26752 -64.61632,-36.69606 -70.15821,-36.68359 -5.54188,0.0125 -65.501381,40.2454 -69.992186,36.99804 C 39.15568,212.63546 58.577906,143.08906 56.853516,137.82227 55.1956,132.7585 2.644049,91.3499 0.10546875,83.476562 V 216.36914 292.23242 H 1152.8652 v -75.86328 h -0.5859 V -0.06054687 h 0.5859 V -75.923828 Z M 1038.6074,0 c 5.5419,-0.01246375 30.7065,67.668661 35.1973,70.916016 4.4908,3.247355 76.6487,5.940237 78.373,11.207031 1.7244,5.266794 -54.8677,50.116123 -56.5683,55.390623 -1.7007,5.2745 18.0347,74.73248 13.5586,78 -4.4762,3.26752 -64.6164,-36.69606 -70.1582,-36.68359 -5.5419,0.0125 -65.50143,40.2454 -69.99222,36.99804 -4.4908,-3.24733 14.9314,-72.79375 13.20703,-78.06054 -1.72441,-5.26679 -58.51708,-49.858317 -56.81641,-55.132814 1.70068,-5.274494 73.84422,-8.294982 78.3203,-11.5625 C 1008.2047,67.804743 1033.0655,0.0124639 1038.6074,0 Z M 345.02344,0.22070312 c 5.54188,-0.0124637 30.70647,67.66866088 35.19726,70.91601588 4.4908,3.247355 76.64864,5.940237 78.37305,11.207031 1.72437,5.266794 -54.86769,50.11417 -56.56836,55.38867 -1.70067,5.2745 18.03473,74.73443 13.55859,78.00196 -4.47617,3.26747 -64.61632,-36.69606 -70.1582,-36.6836 -5.54188,0.0125 -65.50333,40.2454 -69.99414,36.99805 -4.4908,-3.24736 14.93337,-72.79375 13.20898,-78.06055 -1.72434,-5.26679 -58.51708,-49.860267 -56.8164,-55.134764 1.70068,-5.274497 73.84416,-8.293025 78.32031,-11.560547 4.47615,-3.267519 29.33702,-71.05980201 34.87891,-71.07226588 z m 229.94726,0.0585938 c 5.54189,-0.0124638 30.70647,67.66866508 35.19727,70.91601508 4.4908,3.247355 76.64864,5.942191 78.37305,11.208985 1.72437,5.266794 -54.86769,50.114183 -56.56836,55.388673 -1.70072,5.2745 18.03472,74.73248 13.55859,78 -4.47617,3.26752 -64.61632,-36.69606 -70.1582,-36.68359 -5.54189,0.0124 -65.50331,40.24731 -69.99414,37 -4.4908,-3.24736 14.93339,-72.79376 13.20898,-78.06055 -1.72437,-5.2668 -58.51708,-49.86027 -56.81641,-55.134768 1.70072,-5.274493 73.84415,-8.293024 78.32032,-11.560546 4.47617,-3.267523 29.33702,-71.06175526 34.8789,-71.07421908 z m 232.05469,0.0449219 c 5.54188,-0.0124637 30.70647,67.66866018 35.19727,70.91601518 4.49079,3.247355 76.64867,5.940241 78.37304,11.207032 1.72441,5.266794 -54.86764,50.114174 -56.56836,55.388674 -1.70067,5.27449 18.03477,74.73443 13.5586,78.00195 -4.47613,3.26752 -64.61632,-36.69606 -70.15821,-36.68359 -5.54188,0.0125 -65.50139,40.2454 -69.99218,36.99804 -4.4908,-3.24735 14.9314,-72.79375 13.20703,-78.06054 -1.72441,-5.2668 -58.51708,-49.860272 -56.81641,-55.134769 1.70068,-5.274497 73.84414,-8.293028 78.32031,-11.560547 4.47614,-3.267522 29.33703,-71.05980132 34.87891,-71.07226518 z"
       transform="matrix(0.26458333,0,0,0.26458333,0.04691873,-0.01463969)" />
  </g>
</svg>
